<svg width="10" height="12" viewBox="0 0 10 12" fill="none" xmlns="http://www.w3.org/2000/svg">
<path fill-rule="evenodd" clip-rule="evenodd" d="M9.65184 11.7808C9.2518 12.1258 8.66808 12.0559 8.34806 11.6247L4.17414 5.99996L8.34806 0.375268C8.66808 -0.055994 9.25181 -0.125916 9.65184 0.219094C10.0519 0.564104 10.1167 1.1934 9.7967 1.62466L6.54992 5.99996L9.7967 10.3753C10.1167 10.8065 10.0519 11.4358 9.65184 11.7808ZM5.4777 11.7808C5.07766 12.1258 4.49394 12.0559 4.17391 11.6247L4.3581e-08 5.99996L4.17391 0.375268C4.49394 -0.055994 5.07766 -0.125916 5.4777 0.219094C5.87773 0.564104 5.94259 1.1934 5.62256 1.62466L2.37578 5.99996L5.62256 10.3753C5.94259 10.8065 5.87773 11.4358 5.4777 11.7808Z" fill="#710707"/>
</svg>
